<svg width="117" height="93" viewBox="0 0 117 93" fill="none" xmlns="http://www.w3.org/2000/svg">
<path d="M43.3863 61.853H38.2348C36.8124 61.853 35.6591 63.0081 35.6591 64.4327V69.5921C35.6591 71.0109 36.8117 72.1718 38.2348 72.1718H43.3863C44.8088 72.1718 45.9621 71.0167 45.9621 69.5921V64.4327C45.9621 63.0139 44.803 61.853 43.3863 61.853ZM38.2348 30.8966H43.3863C44.8088 30.8966 45.9621 29.7415 45.9621 28.3169V23.1575C45.9621 21.7387 44.803 20.5778 43.3863 20.5778H38.2348C36.8117 20.5778 35.6591 21.7387 35.6591 23.1575V28.3169C35.6591 29.7357 36.8117 30.8966 38.2348 30.8966ZM78.1591 63.1429H54.9773C52.8442 63.1429 51.1136 64.8761 51.1136 67.0124C51.1136 69.1487 52.8442 70.882 54.9773 70.882H78.1591C80.2921 70.882 82.0227 69.1487 82.0227 67.0124C82.0227 64.8761 80.3002 63.1429 78.1591 63.1429ZM78.1591 42.5053H60.1288C58.0038 42.5053 56.2651 44.2466 56.2651 46.3748C56.2651 48.5031 57.9957 50.2444 60.1288 50.2444H78.1591C80.2921 50.2444 82.0227 48.5111 82.0227 46.3748C82.0227 44.2385 80.3002 42.5053 78.1591 42.5053ZM84.5985 5.09961H33.0833C27.3925 5.09961 22.7803 9.71888 22.7803 15.4184V77.3312C22.7803 83.0307 27.3925 87.65 33.0833 87.65H84.5985C90.2893 87.65 94.9015 83.0307 94.9015 77.3312V15.4184C94.9015 9.71888 90.2813 5.09961 84.5985 5.09961ZM87.1743 77.3312C87.1743 78.7539 86.0187 79.9109 84.5985 79.9109H33.0833C31.6631 79.9109 30.5076 78.7539 30.5076 77.3312V15.4184C30.5076 13.9957 31.6631 12.8387 33.0833 12.8387H84.5985C86.0187 12.8387 87.1743 13.9957 87.1743 15.4184V77.3312ZM78.1591 21.8677H54.9773C52.8523 21.8677 51.1136 23.609 51.1136 25.7372C51.1136 27.8655 52.8442 29.6068 54.9773 29.6068H78.1591C80.2921 29.6068 82.0227 27.8735 82.0227 25.7372C82.0227 23.6009 80.3002 21.8677 78.1591 21.8677Z" fill="#406458"/>
<path d="M50.7651 40.6833C49.7589 39.6756 48.1281 39.6756 47.1236 40.6833L41.2187 46.6004L39.1758 44.5528C38.1696 43.5451 36.5388 43.5451 35.5343 44.5528C34.5297 45.5605 34.5281 47.1938 35.5343 48.1999L39.3979 52.0694C39.8986 52.566 40.5586 52.824 41.2187 52.824C41.8787 52.824 42.5368 52.5721 43.0394 52.0681L50.7667 44.329C51.7793 43.3275 51.7793 41.6829 50.7651 40.6833Z" fill="#C98651"/>
</svg>
