<svg width="103" height="81" viewBox="0 0 103 81" fill="none" xmlns="http://www.w3.org/2000/svg">
<path d="M93.1533 65.9289L77.562 8.13086C76.7224 5.035 73.9139 3 70.8593 3C70.2642 3 69.6586 3.07679 69.0555 3.23718L60.1061 5.61905C59.2541 5.84596 58.4934 6.23446 57.8217 6.72226C56.6578 4.51902 54.356 3 51.6923 3H42.4272C41.1533 3 39.9807 3.36581 38.9529 3.962C37.925 3.36581 36.7524 3 35.4785 3H26.2134C22.3757 3 19.2646 6.10598 19.2646 9.9375V18.0312C19.2646 19.9535 20.8209 21.5 22.739 21.5C24.6572 21.5 26.2134 19.9535 26.2134 18.0312V9.9375H35.4785V27.2812C35.4785 29.2035 37.0275 30.75 38.9529 30.75C40.8782 30.75 42.4272 29.2035 42.4272 27.2812V23.8125H51.6923V56.1875H42.4272V52.7188C42.4272 50.7965 40.8782 49.25 38.9529 49.25C37.0275 49.25 35.4785 50.7965 35.4785 52.7188V70.0625H26.2134V61.9688C26.2134 60.0465 24.6644 58.5 22.739 58.5C20.8136 58.5 19.2646 60.0465 19.2646 61.9688V70.0625C19.2646 73.8926 22.3757 77 26.2134 77H35.4785C36.7505 77 37.9279 76.6342 38.9529 76.038C39.9807 76.6387 41.1533 77 42.4272 77H51.6923C55.53 77 58.6411 73.894 58.6411 70.0625V26.891L70.7725 71.8836C71.6121 74.9621 74.4061 77 77.4751 77C78.0703 77 78.6757 76.9232 79.2789 76.7628L88.2414 74.3766C91.807 73.4012 94.1377 69.6 93.1533 65.9289ZM51.6923 70.0625H42.4272V63.125H51.6923V70.0625ZM51.6923 16.875H42.4272V9.9375H51.6923V16.875ZM61.8838 12.3223L70.8347 9.94039L72.6399 16.5758L63.6789 18.9563L61.8838 12.3223ZM65.4885 25.6336L74.451 23.2474L82.8532 54.365L73.8907 56.7512L65.4885 25.6336ZM77.4896 70.077L75.6931 63.4227L84.6555 61.0365L86.4477 67.6763L77.4896 70.077Z" fill="#406458"/>
<path d="M21.451 53.2892H25.9532C27.2324 53.2892 28.2695 52.2538 28.2695 50.9767L28.3998 44.0392H35.2183C36.4974 44.0392 37.5345 43.0037 37.5345 41.7267V37.1017C37.5345 35.8247 36.4973 34.9193 35.2183 34.9193H28.3998L28.3999 28.1119C28.3999 26.8348 27.3626 25.9295 26.0836 25.9295H21.451C20.1719 25.9295 19.265 26.9648 19.265 28.1119L19.1347 34.7892H12.3163C11.0371 34.7892 10 35.8245 10 36.9717V41.5967C10 42.8737 11.0371 43.9092 12.3163 43.9092H19.1347V50.9767C19.1347 52.2486 20.3016 53.2892 21.451 53.2892Z" fill="#C98651"/>
</svg>
