<?xml version="1.0" encoding="utf-8"?>
<!-- Generator: Adobe Illustrator 27.4.0, SVG Export Plug-In . SVG Version: 6.00 Build 0)  -->
<svg version="1.1" id="Layer_1" xmlns="http://www.w3.org/2000/svg" xmlns:xlink="http://www.w3.org/1999/xlink" x="0px" y="0px"
	 viewBox="0 0 121 95" style="enable-background:new 0 0 121 95;" xml:space="preserve">
<style type="text/css">
	.st0{fill:#C98651;}
	.st1{fill:#406458;}
	.st2{fill:#FFFFFF;}
</style>
<path class="st0" d="M103,77.4L84.9,10.2c-1-3.6-4.2-6-7.8-6c-0.7,0-1.4,0.1-2.1,0.3L64.6,7.3c-1,0.3-1.9,0.7-2.7,1.3
	c-1.4-2.6-4-4.3-7.1-4.3H44.1c-1.5,0-2.8,0.4-4,1.1c-1.2-0.7-2.6-1.1-4-1.1H25.3c-4.5,0-8.1,3.6-8.1,8.1v69.9c0,4.5,3.6,8.1,8.1,8.1
	H36c1.5,0,2.8-0.4,4-1.1c1.2,0.7,2.6,1.1,4,1.1h10.8c4.5,0,8.1-3.6,8.1-8.1V32L77,84.3c1,3.6,4.2,5.9,7.8,5.9c0.7,0,1.4-0.1,2.1-0.3
	l10.4-2.8C101.5,86.1,104.1,81.7,103,77.4z M54.8,12.3v8.1H44.1v-8.1H54.8z M44.1,28.5h10.8v37.6H44.1V28.5z M36,66.1H25.3V28.5H36
	V66.1z M36,12.3v8.1H25.3v-8.1H36z M25.3,82.2v-8.1H36v8.1H25.3z M44.1,82.2l0-7.9l10.7-0.2v8.1H44.1z M66.7,15.1l10.4-2.8l2.1,7.7
	l-10.4,2.8L66.7,15.1z M70.9,30.6l10.4-2.8L91,64l-10.4,2.8L70.9,30.6z M84.8,82.2l-2.1-7.7l10.4-2.8l2.1,7.7L84.8,82.2z"/>
<path class="st1" d="M62,8.6c-1.4-2.6-4-4.3-7.1-4.3H44.1c-1.5,0-2.8,0.4-4,1.1c-1.2-0.7-2.6-1.1-4-1.1H25.3c-4.5,0-8.1,3.6-8.1,8.1
	v69.9c0,4.5,3.6,8.1,8.1,8.1H36c1.5,0,2.8-0.4,4-1.1c1.2,0.7,2.6,1.1,4,1.1h10.8c4.5,0,8.1-3.6,8.1-8.1V32V12.3L62,8.6z"/>
<path class="st2" d="M54.8,20.4v-8.1H44.1v8.1H54.8z M54.8,28.5H44.1v37.6h10.8V28.5z M25.3,66.1H36V28.5H25.3V66.1z M36,20.4v-8.1
	H25.3v8.1H36z M25.3,74.1v8.1H36v-8.1H25.3z M44.1,74.3l0,7.9h10.8v-8.1L44.1,74.3z"/>
</svg>
