<svg width="121" height="95" viewBox="0 0 121 95" fill="none" xmlns="http://www.w3.org/2000/svg">
<mask id="path-1-outside-1_26_1561" maskUnits="userSpaceOnUse" x="17.6104" y="5.53589" width="85" height="85" fill="black">
<rect fill="white" x="17.6104" y="5.53589" width="85" height="85"/>
<path d="M31.7604 88.5369H30.1404C30.0634 88.5066 29.9895 88.462 29.9095 88.4479C26.5602 87.8515 24.3387 85.1056 24.4936 81.7016C24.5139 81.2469 24.3823 81.0769 23.9671 80.925C21.9594 80.1919 20.2057 79.1622 19.6104 76.8932V20.6994C19.8797 19.8388 20.2837 19.0662 20.9701 18.4506C21.9583 17.5627 23.1369 17.0362 24.3742 16.6322C24.7913 16.4955 24.8986 16.3629 24.7559 15.9032C23.8679 13.049 25.0525 10.0317 27.598 8.45524C28.3897 7.96418 29.2696 7.77889 30.1393 7.53589H31.7593C32.4458 7.74953 33.1687 7.84166 33.8178 8.18288C36.7631 9.72897 38.0824 12.8647 37.1084 16.0591C37.0203 16.3477 37.0355 16.4591 37.3443 16.5603C38.0956 16.8063 38.8387 17.0838 39.5313 17.4726C40.8516 18.2147 41.9815 19.1462 42.2256 20.7429C42.344 21.5185 42.3106 22.3255 42.2762 23.1152C42.2539 23.6174 42.3815 23.7511 42.9019 23.7501C54.3745 23.7329 65.8472 23.7369 77.3208 23.7369C77.4221 23.7369 77.5244 23.7268 77.6246 23.7389C77.8747 23.7683 77.9385 23.6508 77.9354 23.418C77.9273 22.7943 77.9658 22.1685 77.9385 21.5459C77.8879 20.3724 78.3252 19.4176 79.1423 18.6015C80.1639 17.5809 81.4539 17.0463 82.7823 16.5968C83.1731 16.4641 83.2015 16.3254 83.0881 15.9609C82.1889 13.0682 83.3564 10.0449 85.918 8.45828C86.7108 7.96721 87.5906 7.78193 88.4614 7.53893C89.0011 7.53893 89.5417 7.53893 90.0814 7.53893C90.1745 7.57133 90.2657 7.61689 90.3619 7.6341C94.2276 8.30336 96.609 12.1448 95.4628 15.9103C95.3261 16.3608 95.4081 16.4904 95.8425 16.6373C97.9647 17.3561 99.9148 18.3008 100.611 20.7014V76.8952C100.263 78.256 99.4359 79.2523 98.2614 79.9854C97.6438 80.3701 96.9947 80.7002 96.3032 80.9128C95.8445 81.0536 95.7038 81.25 95.7251 81.7512C95.8294 84.2288 94.7855 86.1363 92.7493 87.5336C91.9373 88.0914 91.0038 88.2909 90.0824 88.539H88.4624C87.6403 88.3091 86.7918 88.1603 86.0516 87.6945C83.7857 86.27 82.6689 84.2379 82.8187 81.5507C82.838 81.2115 82.7296 81.0809 82.4299 80.9796C81.9844 80.8298 81.543 80.6546 81.1238 80.443C79.2385 79.4933 77.821 78.2054 77.9354 75.8625C77.9547 75.4777 77.6853 75.581 77.4909 75.58C65.9049 75.577 54.3179 75.579 42.7318 75.5699C42.3774 75.5699 42.2671 75.66 42.2863 76.0174C42.3511 77.2131 41.9238 78.2277 41.0835 79.0721C40.1833 79.9773 39.0777 80.5433 37.886 80.9442C37.5073 81.0718 37.3818 81.2237 37.404 81.6519C37.5346 84.169 36.4999 86.112 34.4293 87.5336C33.6173 88.0914 32.6838 88.2909 31.7624 88.539L31.7604 88.5369ZM42.2904 49.6316C42.2904 57.0219 42.2954 64.4121 42.2782 71.8023C42.2772 72.261 42.4038 72.3481 42.8361 72.3471C54.3604 72.3349 65.8847 72.3349 77.4079 72.3471C77.82 72.3471 77.9405 72.26 77.9395 71.8287C77.9273 57.0482 77.9273 42.2677 77.9395 27.4872C77.9395 27.0569 77.821 26.9678 77.4079 26.9678C65.8836 26.9799 54.3594 26.9799 42.8361 26.9678C42.4048 26.9678 42.2762 27.0518 42.2772 27.5115C42.2944 34.8845 42.2893 42.2586 42.2893 49.6316H42.2904ZM39.0504 25.3984C37.2582 26.2104 35.4671 26.6489 33.6142 26.8301C30.0978 27.1733 26.6401 26.9718 23.3323 25.5938C22.9212 25.4227 22.8402 25.4754 22.8423 25.9158C22.8564 29.577 22.8504 33.2392 22.8504 36.9004C22.8504 49.8928 22.8544 62.8863 22.8372 75.8787C22.8372 76.4689 23.0701 76.8314 23.5125 77.1332C24.0036 77.4673 24.5402 77.7133 25.0981 77.9057C28.0688 78.9273 31.1134 79.0103 34.1883 78.5618C35.5947 78.3573 36.9575 77.9857 38.1968 77.2547C38.7658 76.9195 39.0716 76.5024 39.0706 75.7531C39.0453 59.2169 39.0514 42.6808 39.0514 26.1436C39.0514 25.9259 39.0514 25.7072 39.0514 25.3984H39.0504ZM97.3704 25.3954C95.2158 26.3846 93.0257 26.8068 90.777 26.9283C87.6149 27.0984 84.5096 26.8281 81.5612 25.5574C81.1542 25.3822 81.1673 25.5675 81.1673 25.8652C81.1724 28.7164 81.1704 31.5686 81.1704 34.4198C81.1704 48.2394 81.1744 62.058 81.1572 75.8777C81.1572 76.4669 81.3871 76.8314 81.8305 77.1321C82.3216 77.4663 82.8582 77.7123 83.4161 77.9047C86.3868 78.9263 89.4314 79.0144 92.5053 78.5608C94.0109 78.338 95.474 77.9523 96.7609 77.0765C97.1841 76.7889 97.3825 76.4477 97.3815 75.904C97.3673 59.3172 97.3704 42.7314 97.3704 26.1446C97.3704 25.9259 97.3704 25.7082 97.3704 25.3954ZM30.762 23.7379C32.1957 23.7318 33.4573 23.6387 34.7027 23.4068C35.9491 23.175 37.1732 22.8327 38.2434 22.1321C39.3855 21.3849 39.1972 21.1763 38.291 20.5283C37.4273 19.9107 36.4148 19.6424 35.4043 19.37C34.9933 19.2596 34.6845 19.3234 34.321 19.5411C32.2312 20.7926 30.0513 20.8563 27.925 19.7264C27.2213 19.3528 26.6482 19.2849 25.9466 19.5077C24.931 19.8297 23.9347 20.1749 23.1217 20.907C22.8129 21.1854 22.8169 21.4314 23.1045 21.7109C23.473 22.0683 23.9074 22.3184 24.3701 22.529C26.4559 23.4807 28.6773 23.6924 30.763 23.7389L30.762 23.7379ZM89.0729 23.7379C90.2657 23.7318 91.2579 23.6701 92.2441 23.5283C93.856 23.2965 95.4193 22.9107 96.7872 21.9721C97.5223 21.4679 97.5101 21.1429 96.769 20.6225C95.8567 19.9815 94.8179 19.6606 93.7558 19.3751C93.3295 19.2606 93.0045 19.3224 92.6248 19.5492C90.532 20.7946 88.3581 20.8442 86.2258 19.7213C85.5677 19.3751 85.029 19.2637 84.3446 19.4844C83.3462 19.8054 82.354 20.1203 81.543 20.8219C81.0772 21.2249 81.0772 21.3768 81.5136 21.7909C81.8609 22.1199 82.276 22.3397 82.7063 22.5361C84.7931 23.4878 87.0155 23.6924 89.0719 23.7399L89.0729 23.7379ZM30.9301 10.7799C29.1319 10.7911 27.7033 12.242 27.7124 14.0473C27.7215 15.805 29.1805 17.2539 30.9423 17.2549C32.7293 17.2549 34.2045 15.7797 34.1853 14.0098C34.1661 12.1944 32.7283 10.7688 30.9301 10.7799ZM89.241 17.2549C91.0291 17.266 92.5094 15.804 92.5053 14.0311C92.5013 12.2207 91.0686 10.7799 89.2714 10.7799C87.4712 10.7799 86.0385 12.2167 86.0324 14.026C86.0273 15.7807 87.4803 17.2437 89.241 17.2549ZM30.9493 85.2959C32.6757 85.2959 34.0992 83.9442 34.1853 82.2453C34.2015 81.9314 34.1266 81.8251 33.7985 81.8706C31.9001 82.1309 29.9986 82.1298 28.0992 81.8706C27.7701 81.8261 27.6982 81.9304 27.7144 82.2453C27.8005 83.9442 29.224 85.297 30.9493 85.2959ZM89.2694 85.2959C90.9957 85.2959 92.4193 83.9432 92.5053 82.2453C92.5215 81.9314 92.4456 81.8261 92.1175 81.8706C90.2191 82.1309 88.3176 82.1298 86.4182 81.8706C86.0891 81.8261 86.0182 81.9314 86.0334 82.2463C86.1205 83.9453 87.5441 85.297 89.2683 85.297L89.2694 85.2959Z"/>
</mask>
<path d="M31.7604 88.5369H30.1404C30.0634 88.5066 29.9895 88.462 29.9095 88.4479C26.5602 87.8515 24.3387 85.1056 24.4936 81.7016C24.5139 81.2469 24.3823 81.0769 23.9671 80.925C21.9594 80.1919 20.2057 79.1622 19.6104 76.8932V20.6994C19.8797 19.8388 20.2837 19.0662 20.9701 18.4506C21.9583 17.5627 23.1369 17.0362 24.3742 16.6322C24.7913 16.4955 24.8986 16.3629 24.7559 15.9032C23.8679 13.049 25.0525 10.0317 27.598 8.45524C28.3897 7.96418 29.2696 7.77889 30.1393 7.53589H31.7593C32.4458 7.74953 33.1687 7.84166 33.8178 8.18288C36.7631 9.72897 38.0824 12.8647 37.1084 16.0591C37.0203 16.3477 37.0355 16.4591 37.3443 16.5603C38.0956 16.8063 38.8387 17.0838 39.5313 17.4726C40.8516 18.2147 41.9815 19.1462 42.2256 20.7429C42.344 21.5185 42.3106 22.3255 42.2762 23.1152C42.2539 23.6174 42.3815 23.7511 42.9019 23.7501C54.3745 23.7329 65.8472 23.7369 77.3208 23.7369C77.4221 23.7369 77.5244 23.7268 77.6246 23.7389C77.8747 23.7683 77.9385 23.6508 77.9354 23.418C77.9273 22.7943 77.9658 22.1685 77.9385 21.5459C77.8879 20.3724 78.3252 19.4176 79.1423 18.6015C80.1639 17.5809 81.4539 17.0463 82.7823 16.5968C83.1731 16.4641 83.2015 16.3254 83.0881 15.9609C82.1889 13.0682 83.3564 10.0449 85.918 8.45828C86.7108 7.96721 87.5906 7.78193 88.4614 7.53893C89.0011 7.53893 89.5417 7.53893 90.0814 7.53893C90.1745 7.57133 90.2657 7.61689 90.3619 7.6341C94.2276 8.30336 96.609 12.1448 95.4628 15.9103C95.3261 16.3608 95.4081 16.4904 95.8425 16.6373C97.9647 17.3561 99.9148 18.3008 100.611 20.7014V76.8952C100.263 78.256 99.4359 79.2523 98.2614 79.9854C97.6438 80.3701 96.9947 80.7002 96.3032 80.9128C95.8445 81.0536 95.7038 81.25 95.7251 81.7512C95.8294 84.2288 94.7855 86.1363 92.7493 87.5336C91.9373 88.0914 91.0038 88.2909 90.0824 88.539H88.4624C87.6403 88.3091 86.7918 88.1603 86.0516 87.6945C83.7857 86.27 82.6689 84.2379 82.8187 81.5507C82.838 81.2115 82.7296 81.0809 82.4299 80.9796C81.9844 80.8298 81.543 80.6546 81.1238 80.443C79.2385 79.4933 77.821 78.2054 77.9354 75.8625C77.9547 75.4777 77.6853 75.581 77.4909 75.58C65.9049 75.577 54.3179 75.579 42.7318 75.5699C42.3774 75.5699 42.2671 75.66 42.2863 76.0174C42.3511 77.2131 41.9238 78.2277 41.0835 79.0721C40.1833 79.9773 39.0777 80.5433 37.886 80.9442C37.5073 81.0718 37.3818 81.2237 37.404 81.6519C37.5346 84.169 36.4999 86.112 34.4293 87.5336C33.6173 88.0914 32.6838 88.2909 31.7624 88.539L31.7604 88.5369ZM42.2904 49.6316C42.2904 57.0219 42.2954 64.4121 42.2782 71.8023C42.2772 72.261 42.4038 72.3481 42.8361 72.3471C54.3604 72.3349 65.8847 72.3349 77.4079 72.3471C77.82 72.3471 77.9405 72.26 77.9395 71.8287C77.9273 57.0482 77.9273 42.2677 77.9395 27.4872C77.9395 27.0569 77.821 26.9678 77.4079 26.9678C65.8836 26.9799 54.3594 26.9799 42.8361 26.9678C42.4048 26.9678 42.2762 27.0518 42.2772 27.5115C42.2944 34.8845 42.2893 42.2586 42.2893 49.6316H42.2904ZM39.0504 25.3984C37.2582 26.2104 35.4671 26.6489 33.6142 26.8301C30.0978 27.1733 26.6401 26.9718 23.3323 25.5938C22.9212 25.4227 22.8402 25.4754 22.8423 25.9158C22.8564 29.577 22.8504 33.2392 22.8504 36.9004C22.8504 49.8928 22.8544 62.8863 22.8372 75.8787C22.8372 76.4689 23.0701 76.8314 23.5125 77.1332C24.0036 77.4673 24.5402 77.7133 25.0981 77.9057C28.0688 78.9273 31.1134 79.0103 34.1883 78.5618C35.5947 78.3573 36.9575 77.9857 38.1968 77.2547C38.7658 76.9195 39.0716 76.5024 39.0706 75.7531C39.0453 59.2169 39.0514 42.6808 39.0514 26.1436C39.0514 25.9259 39.0514 25.7072 39.0514 25.3984H39.0504ZM97.3704 25.3954C95.2158 26.3846 93.0257 26.8068 90.777 26.9283C87.6149 27.0984 84.5096 26.8281 81.5612 25.5574C81.1542 25.3822 81.1673 25.5675 81.1673 25.8652C81.1724 28.7164 81.1704 31.5686 81.1704 34.4198C81.1704 48.2394 81.1744 62.058 81.1572 75.8777C81.1572 76.4669 81.3871 76.8314 81.8305 77.1321C82.3216 77.4663 82.8582 77.7123 83.4161 77.9047C86.3868 78.9263 89.4314 79.0144 92.5053 78.5608C94.0109 78.338 95.474 77.9523 96.7609 77.0765C97.1841 76.7889 97.3825 76.4477 97.3815 75.904C97.3673 59.3172 97.3704 42.7314 97.3704 26.1446C97.3704 25.9259 97.3704 25.7082 97.3704 25.3954ZM30.762 23.7379C32.1957 23.7318 33.4573 23.6387 34.7027 23.4068C35.9491 23.175 37.1732 22.8327 38.2434 22.1321C39.3855 21.3849 39.1972 21.1763 38.291 20.5283C37.4273 19.9107 36.4148 19.6424 35.4043 19.37C34.9933 19.2596 34.6845 19.3234 34.321 19.5411C32.2312 20.7926 30.0513 20.8563 27.925 19.7264C27.2213 19.3528 26.6482 19.2849 25.9466 19.5077C24.931 19.8297 23.9347 20.1749 23.1217 20.907C22.8129 21.1854 22.8169 21.4314 23.1045 21.7109C23.473 22.0683 23.9074 22.3184 24.3701 22.529C26.4559 23.4807 28.6773 23.6924 30.763 23.7389L30.762 23.7379ZM89.0729 23.7379C90.2657 23.7318 91.2579 23.6701 92.2441 23.5283C93.856 23.2965 95.4193 22.9107 96.7872 21.9721C97.5223 21.4679 97.5101 21.1429 96.769 20.6225C95.8567 19.9815 94.8179 19.6606 93.7558 19.3751C93.3295 19.2606 93.0045 19.3224 92.6248 19.5492C90.532 20.7946 88.3581 20.8442 86.2258 19.7213C85.5677 19.3751 85.029 19.2637 84.3446 19.4844C83.3462 19.8054 82.354 20.1203 81.543 20.8219C81.0772 21.2249 81.0772 21.3768 81.5136 21.7909C81.8609 22.1199 82.276 22.3397 82.7063 22.5361C84.7931 23.4878 87.0155 23.6924 89.0719 23.7399L89.0729 23.7379ZM30.9301 10.7799C29.1319 10.7911 27.7033 12.242 27.7124 14.0473C27.7215 15.805 29.1805 17.2539 30.9423 17.2549C32.7293 17.2549 34.2045 15.7797 34.1853 14.0098C34.1661 12.1944 32.7283 10.7688 30.9301 10.7799ZM89.241 17.2549C91.0291 17.266 92.5094 15.804 92.5053 14.0311C92.5013 12.2207 91.0686 10.7799 89.2714 10.7799C87.4712 10.7799 86.0385 12.2167 86.0324 14.026C86.0273 15.7807 87.4803 17.2437 89.241 17.2549ZM30.9493 85.2959C32.6757 85.2959 34.0992 83.9442 34.1853 82.2453C34.2015 81.9314 34.1266 81.8251 33.7985 81.8706C31.9001 82.1309 29.9986 82.1298 28.0992 81.8706C27.7701 81.8261 27.6982 81.9304 27.7144 82.2453C27.8005 83.9442 29.224 85.297 30.9493 85.2959ZM89.2694 85.2959C90.9957 85.2959 92.4193 83.9432 92.5053 82.2453C92.5215 81.9314 92.4456 81.8261 92.1175 81.8706C90.2191 82.1309 88.3176 82.1298 86.4182 81.8706C86.0891 81.8261 86.0182 81.9314 86.0334 82.2463C86.1205 83.9453 87.5441 85.297 89.2683 85.297L89.2694 85.2959Z" fill="#416458"/>
<path d="M31.7604 88.5369H30.1404C30.0634 88.5066 29.9895 88.462 29.9095 88.4479C26.5602 87.8515 24.3387 85.1056 24.4936 81.7016C24.5139 81.2469 24.3823 81.0769 23.9671 80.925C21.9594 80.1919 20.2057 79.1622 19.6104 76.8932V20.6994C19.8797 19.8388 20.2837 19.0662 20.9701 18.4506C21.9583 17.5627 23.1369 17.0362 24.3742 16.6322C24.7913 16.4955 24.8986 16.3629 24.7559 15.9032C23.8679 13.049 25.0525 10.0317 27.598 8.45524C28.3897 7.96418 29.2696 7.77889 30.1393 7.53589H31.7593C32.4458 7.74953 33.1687 7.84166 33.8178 8.18288C36.7631 9.72897 38.0824 12.8647 37.1084 16.0591C37.0203 16.3477 37.0355 16.4591 37.3443 16.5603C38.0956 16.8063 38.8387 17.0838 39.5313 17.4726C40.8516 18.2147 41.9815 19.1462 42.2256 20.7429C42.344 21.5185 42.3106 22.3255 42.2762 23.1152C42.2539 23.6174 42.3815 23.7511 42.9019 23.7501C54.3745 23.7329 65.8472 23.7369 77.3208 23.7369C77.4221 23.7369 77.5244 23.7268 77.6246 23.7389C77.8747 23.7683 77.9385 23.6508 77.9354 23.418C77.9273 22.7943 77.9658 22.1685 77.9385 21.5459C77.8879 20.3724 78.3252 19.4176 79.1423 18.6015C80.1639 17.5809 81.4539 17.0463 82.7823 16.5968C83.1731 16.4641 83.2015 16.3254 83.0881 15.9609C82.1889 13.0682 83.3564 10.0449 85.918 8.45828C86.7108 7.96721 87.5906 7.78193 88.4614 7.53893C89.0011 7.53893 89.5417 7.53893 90.0814 7.53893C90.1745 7.57133 90.2657 7.61689 90.3619 7.6341C94.2276 8.30336 96.609 12.1448 95.4628 15.9103C95.3261 16.3608 95.4081 16.4904 95.8425 16.6373C97.9647 17.3561 99.9148 18.3008 100.611 20.7014V76.8952C100.263 78.256 99.4359 79.2523 98.2614 79.9854C97.6438 80.3701 96.9947 80.7002 96.3032 80.9128C95.8445 81.0536 95.7038 81.25 95.7251 81.7512C95.8294 84.2288 94.7855 86.1363 92.7493 87.5336C91.9373 88.0914 91.0038 88.2909 90.0824 88.539H88.4624C87.6403 88.3091 86.7918 88.1603 86.0516 87.6945C83.7857 86.27 82.6689 84.2379 82.8187 81.5507C82.838 81.2115 82.7296 81.0809 82.4299 80.9796C81.9844 80.8298 81.543 80.6546 81.1238 80.443C79.2385 79.4933 77.821 78.2054 77.9354 75.8625C77.9547 75.4777 77.6853 75.581 77.4909 75.58C65.9049 75.577 54.3179 75.579 42.7318 75.5699C42.3774 75.5699 42.2671 75.66 42.2863 76.0174C42.3511 77.2131 41.9238 78.2277 41.0835 79.0721C40.1833 79.9773 39.0777 80.5433 37.886 80.9442C37.5073 81.0718 37.3818 81.2237 37.404 81.6519C37.5346 84.169 36.4999 86.112 34.4293 87.5336C33.6173 88.0914 32.6838 88.2909 31.7624 88.539L31.7604 88.5369ZM42.2904 49.6316C42.2904 57.0219 42.2954 64.4121 42.2782 71.8023C42.2772 72.261 42.4038 72.3481 42.8361 72.3471C54.3604 72.3349 65.8847 72.3349 77.4079 72.3471C77.82 72.3471 77.9405 72.26 77.9395 71.8287C77.9273 57.0482 77.9273 42.2677 77.9395 27.4872C77.9395 27.0569 77.821 26.9678 77.4079 26.9678C65.8836 26.9799 54.3594 26.9799 42.8361 26.9678C42.4048 26.9678 42.2762 27.0518 42.2772 27.5115C42.2944 34.8845 42.2893 42.2586 42.2893 49.6316H42.2904ZM39.0504 25.3984C37.2582 26.2104 35.4671 26.6489 33.6142 26.8301C30.0978 27.1733 26.6401 26.9718 23.3323 25.5938C22.9212 25.4227 22.8402 25.4754 22.8423 25.9158C22.8564 29.577 22.8504 33.2392 22.8504 36.9004C22.8504 49.8928 22.8544 62.8863 22.8372 75.8787C22.8372 76.4689 23.0701 76.8314 23.5125 77.1332C24.0036 77.4673 24.5402 77.7133 25.0981 77.9057C28.0688 78.9273 31.1134 79.0103 34.1883 78.5618C35.5947 78.3573 36.9575 77.9857 38.1968 77.2547C38.7658 76.9195 39.0716 76.5024 39.0706 75.7531C39.0453 59.2169 39.0514 42.6808 39.0514 26.1436C39.0514 25.9259 39.0514 25.7072 39.0514 25.3984H39.0504ZM97.3704 25.3954C95.2158 26.3846 93.0257 26.8068 90.777 26.9283C87.6149 27.0984 84.5096 26.8281 81.5612 25.5574C81.1542 25.3822 81.1673 25.5675 81.1673 25.8652C81.1724 28.7164 81.1704 31.5686 81.1704 34.4198C81.1704 48.2394 81.1744 62.058 81.1572 75.8777C81.1572 76.4669 81.3871 76.8314 81.8305 77.1321C82.3216 77.4663 82.8582 77.7123 83.4161 77.9047C86.3868 78.9263 89.4314 79.0144 92.5053 78.5608C94.0109 78.338 95.474 77.9523 96.7609 77.0765C97.1841 76.7889 97.3825 76.4477 97.3815 75.904C97.3673 59.3172 97.3704 42.7314 97.3704 26.1446C97.3704 25.9259 97.3704 25.7082 97.3704 25.3954ZM30.762 23.7379C32.1957 23.7318 33.4573 23.6387 34.7027 23.4068C35.9491 23.175 37.1732 22.8327 38.2434 22.1321C39.3855 21.3849 39.1972 21.1763 38.291 20.5283C37.4273 19.9107 36.4148 19.6424 35.4043 19.37C34.9933 19.2596 34.6845 19.3234 34.321 19.5411C32.2312 20.7926 30.0513 20.8563 27.925 19.7264C27.2213 19.3528 26.6482 19.2849 25.9466 19.5077C24.931 19.8297 23.9347 20.1749 23.1217 20.907C22.8129 21.1854 22.8169 21.4314 23.1045 21.7109C23.473 22.0683 23.9074 22.3184 24.3701 22.529C26.4559 23.4807 28.6773 23.6924 30.763 23.7389L30.762 23.7379ZM89.0729 23.7379C90.2657 23.7318 91.2579 23.6701 92.2441 23.5283C93.856 23.2965 95.4193 22.9107 96.7872 21.9721C97.5223 21.4679 97.5101 21.1429 96.769 20.6225C95.8567 19.9815 94.8179 19.6606 93.7558 19.3751C93.3295 19.2606 93.0045 19.3224 92.6248 19.5492C90.532 20.7946 88.3581 20.8442 86.2258 19.7213C85.5677 19.3751 85.029 19.2637 84.3446 19.4844C83.3462 19.8054 82.354 20.1203 81.543 20.8219C81.0772 21.2249 81.0772 21.3768 81.5136 21.7909C81.8609 22.1199 82.276 22.3397 82.7063 22.5361C84.7931 23.4878 87.0155 23.6924 89.0719 23.7399L89.0729 23.7379ZM30.9301 10.7799C29.1319 10.7911 27.7033 12.242 27.7124 14.0473C27.7215 15.805 29.1805 17.2539 30.9423 17.2549C32.7293 17.2549 34.2045 15.7797 34.1853 14.0098C34.1661 12.1944 32.7283 10.7688 30.9301 10.7799ZM89.241 17.2549C91.0291 17.266 92.5094 15.804 92.5053 14.0311C92.5013 12.2207 91.0686 10.7799 89.2714 10.7799C87.4712 10.7799 86.0385 12.2167 86.0324 14.026C86.0273 15.7807 87.4803 17.2437 89.241 17.2549ZM30.9493 85.2959C32.6757 85.2959 34.0992 83.9442 34.1853 82.2453C34.2015 81.9314 34.1266 81.8251 33.7985 81.8706C31.9001 82.1309 29.9986 82.1298 28.0992 81.8706C27.7701 81.8261 27.6982 81.9304 27.7144 82.2453C27.8005 83.9442 29.224 85.297 30.9493 85.2959ZM89.2694 85.2959C90.9957 85.2959 92.4193 83.9432 92.5053 82.2453C92.5215 81.9314 92.4456 81.8261 92.1175 81.8706C90.2191 82.1309 88.3176 82.1298 86.4182 81.8706C86.0891 81.8261 86.0182 81.9314 86.0334 82.2463C86.1205 83.9453 87.5441 85.297 89.2683 85.297L89.2694 85.2959Z" stroke="#406458" stroke-width="2.4" mask="url(#path-1-outside-1_26_1561)"/>
<path d="M60.1052 31.84C64.2544 31.84 68.4046 31.8471 72.5538 31.8299C72.974 31.8278 73.0996 31.9301 73.0803 32.3554C73.0439 33.1461 73.0611 33.9409 73.0743 34.7327C73.0783 34.9858 73.0165 35.1205 72.7401 35.081C72.6743 35.0719 72.6055 35.08 72.5376 35.08C64.2554 35.08 55.9732 35.0759 47.6909 35.0911C47.2464 35.0911 47.1118 34.9899 47.1391 34.5393C47.1806 33.8336 47.1766 33.1218 47.1411 32.4151C47.1189 31.9696 47.2292 31.8258 47.7081 31.8278C51.8401 31.8491 55.9732 31.84 60.1062 31.84H60.1052Z" fill="#C98650"/>
<path d="M60.1583 48.0396C60.1581 48.0398 60.1583 48.0401 60.1585 48.0401C64.2913 48.0401 68.4231 48.0472 72.5559 48.03C72.9791 48.028 73.0996 48.1353 73.0803 48.5575C73.0449 49.3483 73.0611 50.1431 73.0753 50.9349C73.0793 51.191 73.0145 51.3196 72.7391 51.2812C72.6561 51.27 72.571 51.2791 72.486 51.2791C64.2372 51.2791 55.9894 51.2741 47.7405 51.2913C47.2505 51.2923 47.1067 51.1759 47.1391 50.6858C47.1847 49.9801 47.1766 49.2683 47.1411 48.5616C47.1209 48.1485 47.2272 48.027 47.6595 48.028C51.8257 48.0462 55.9919 48.0391 60.1581 48.0391C60.1584 48.0391 60.1585 48.0394 60.1583 48.0396Z" fill="#C98650"/>
<path d="M60.0839 67.4801C55.9346 67.4801 51.7844 67.474 47.6352 67.4902C47.2282 67.4922 47.1259 67.3738 47.1411 66.985C47.1704 66.2266 47.1704 65.4662 47.1411 64.7089C47.1259 64.3332 47.2282 64.2289 47.6119 64.231C50.294 64.2492 52.9761 64.2401 55.6582 64.2401C61.2756 64.2401 66.8919 64.2462 72.5093 64.2289C72.9811 64.2279 73.1046 64.3585 73.0803 64.8121C73.0429 65.5351 73.0479 66.2631 73.0793 66.987C73.0965 67.3798 72.9872 67.4912 72.5832 67.4902C68.4167 67.475 64.2503 67.4801 60.0839 67.4801Z" fill="#C98650"/>
<path d="M62.5644 39.9395C62.5647 39.9399 62.5652 39.9401 62.5656 39.9401C65.9046 39.9401 69.2446 39.9471 72.5836 39.9299C72.9876 39.9279 73.0949 40.0413 73.0787 40.4331C73.0484 41.1743 73.0443 41.9185 73.0787 42.6586C73.099 43.0748 72.9866 43.1912 72.5583 43.1892C68.4263 43.1719 64.2943 43.179 60.1612 43.179C57.5976 43.179 55.0339 43.1699 52.4703 43.1881C52.0855 43.1912 51.9853 43.0849 52.0005 42.7102C52.0298 41.9529 52.0309 41.1915 52.0005 40.4342C51.9853 40.0443 52.0876 39.9269 52.4946 39.9289C55.8508 39.9461 59.207 39.939 62.5632 39.939C62.5637 39.939 62.5641 39.9392 62.5644 39.9395Z" fill="#C98650"/>
<path d="M62.5362 56.14C65.8754 56.14 69.2156 56.1481 72.5548 56.1298C72.976 56.1278 73.1016 56.2311 73.0803 56.6553C73.0439 57.3955 73.05 58.1397 73.0783 58.8808C73.0925 59.2625 73.0034 59.4012 72.5883 59.3901C71.4249 59.3587 70.2605 59.379 69.0972 59.379C63.5821 59.379 58.067 59.3729 52.5509 59.3901C52.1054 59.3911 51.9738 59.2878 51.9991 58.8383C52.0406 58.1154 52.0345 57.3874 52.0001 56.6634C51.9809 56.2524 52.0821 56.1258 52.5165 56.1288C55.8557 56.1491 59.1959 56.14 62.5351 56.14H62.5362Z" fill="#C98650"/>
</svg>
