<svg width="122" height="95" viewBox="0 0 122 95" fill="none" xmlns="http://www.w3.org/2000/svg">
<path d="M98.1773 14.1892C102.126 18.029 102.126 24.256 98.1773 27.9738L62.8233 63.7028C62.979 64.6401 63.0639 65.6057 63.0639 66.5856C63.0639 76.0006 55.4638 83.6264 46.0804 83.6264H24.568C22.0672 83.6264 20.0391 81.5957 20.0391 79.0822C20.0391 76.5687 22.0672 74.538 24.568 74.538H25.4186C27.9774 74.538 29.6829 71.7262 29.2936 69.1985C29.1649 68.3464 28.9695 67.466 28.9695 66.5856C28.9695 57.1705 36.697 49.4169 45.953 49.4169C47.057 49.4169 48.0194 49.6299 48.9535 49.7861L84.4348 14.1892C88.2702 10.3483 94.4692 10.3483 98.1773 14.1892ZM93.4927 19.0089C92.318 17.8302 90.4215 17.8302 89.1194 19.0089L63.3753 44.9579L67.6353 49.2323L93.4927 23.2776C94.6674 22.099 94.6674 20.1875 93.4927 19.0089ZM35.8903 66.5856C35.8903 67.1252 35.9328 67.6506 36.0035 68.1618C36.4706 71.2008 35.7063 74.2824 34.0618 76.6823L33.9684 76.8101H46.0804C51.7133 76.8101 56.2705 72.2374 56.2705 66.5856C56.2705 65.2507 56.0158 63.9868 55.4355 62.8224L49.8309 57.0711C48.6704 56.6167 47.4108 56.2332 46.0804 56.2332C40.4476 56.2332 35.8903 60.9337 35.8903 66.5856Z" fill="#406458"/>
<path d="M45.4955 13.6624L60.8372 29.0674L56.0394 33.8814L51.3972 29.11L42.4951 38.0422L47.2504 42.7001L46.0899 43.8645L45.7502 43.7367C43.7264 43.7367 41.6459 44.1627 39.6645 44.7308L27.0981 32.1205C24.0029 29.0106 23.6165 24.215 25.9376 20.6875C26.2688 20.1834 26.6565 19.7048 27.0981 19.2618L32.6786 13.6624C36.2112 10.1125 41.9573 10.1125 45.4955 13.6624ZM78.4576 56.3753L83.2554 51.5613L88.5345 56.8582C90.0064 58.335 91.0962 60.1669 91.6764 62.1692L96.6866 79.2527C97.0404 80.4598 96.7149 81.752 95.71 82.5047C94.9599 83.5129 93.672 83.8395 92.469 83.4845L75.443 78.4575C73.6881 77.8184 72.0746 77.0516 70.716 75.8445C70.5178 75.5463 70.3338 75.4895 70.1499 75.3049L67.6589 72.8198C68.2251 70.8317 68.5223 68.7442 68.5223 66.5857L68.3949 66.3443L69.6687 65.194L74.9477 70.4909C75.627 71.1583 76.4479 71.6553 77.3537 71.9251L88.4213 75.1913L85.1661 64.0863C84.9255 63.2911 84.5292 62.5527 83.9772 61.942C83.9065 61.8426 83.8216 61.7574 83.7366 61.6722L78.4576 56.3753Z" fill="#C98651"/>
</svg>
