<svg width="1927" height="645" viewBox="0 0 1927 645" fill="none" xmlns="http://www.w3.org/2000/svg">
<path d="M329.451 562.744C329.451 577.337 324.999 584.611 316.141 584.611H218.147C211.82 584.611 207.743 582.828 206.009 579.261C204.603 576.493 203.9 570.956 203.9 562.697V404.839C203.9 401.038 202.681 395.501 200.291 388.274C197.901 381.048 196.683 375.792 196.683 372.507C196.683 367.205 198.604 363.357 202.4 361.104C210.648 356.177 232.487 353.69 267.917 353.69C308.924 353.69 329.451 374.853 329.451 417.227V562.744V562.744ZM300.395 550.778V418.682C300.395 387.195 288.163 371.475 263.746 371.475C253.858 371.475 245.938 374.853 239.986 381.658C234.034 388.462 231.081 396.862 231.081 406.857V547.211C231.081 560.397 235.955 566.967 245.703 566.967H288.819C294.115 566.967 297.489 565.418 298.895 562.415C299.879 560.585 300.395 556.737 300.395 550.778Z" fill="#474848"/>
<path d="M329.451 562.744C329.451 577.337 324.999 584.611 316.141 584.611H218.147C211.82 584.611 207.743 582.828 206.009 579.261C204.603 576.493 203.9 570.956 203.9 562.697V404.839C203.9 401.038 202.681 395.501 200.291 388.274C197.901 381.048 196.683 375.792 196.683 372.507C196.683 367.205 198.604 363.357 202.4 361.104C210.648 356.177 232.487 353.69 267.917 353.69C308.924 353.69 329.451 374.853 329.451 417.227V562.744V562.744ZM300.395 550.778V418.682C300.395 387.195 288.163 371.475 263.746 371.475C253.858 371.475 245.938 374.853 239.986 381.658C234.034 388.462 231.081 396.862 231.081 406.857V547.211C231.081 560.397 235.955 566.967 245.703 566.967H288.819C294.115 566.967 297.489 565.418 298.895 562.415C299.879 560.585 300.395 556.737 300.395 550.778Z" stroke="#436358" stroke-miterlimit="10"/>
<path d="M424.587 464.247C423.696 480.342 420.697 488.413 415.635 488.413C408.418 488.413 404.435 480.389 403.685 464.247L401.388 414.224C400.498 394.187 391.125 382.831 373.27 380.156C364.646 378.889 360.335 375.088 360.335 368.753C360.335 360.917 365.209 356.975 374.957 356.975H403.825C412.027 356.975 418.447 360.259 422.993 366.876C427.164 372.976 428.992 380.203 428.476 388.556L424.587 464.247Z" fill="#474848"/>
<path d="M424.587 464.247C423.696 480.342 420.697 488.413 415.635 488.413C408.418 488.413 404.435 480.389 403.685 464.247L401.388 414.224C400.498 394.187 391.125 382.831 373.27 380.156C364.646 378.889 360.335 375.088 360.335 368.753C360.335 360.917 365.209 356.975 374.957 356.975H403.825C412.027 356.975 418.447 360.259 422.993 366.876C427.164 372.976 428.992 380.203 428.476 388.556L424.587 464.247Z" stroke="#436358" stroke-miterlimit="10"/>
<path d="M585.661 376.167C570.102 384.895 562.276 399.114 562.276 418.729V569.595C562.276 581.232 557.777 587.098 548.779 587.098C539.781 587.098 535.282 581.42 535.282 570.017V425.392C535.282 396.768 522.112 380.672 495.774 377.106L464.984 372.929C460.063 372.272 457.58 369.645 457.58 364.952C457.58 359.65 460.719 356.975 467.093 356.975H582.381C588.707 356.975 591.894 359.978 591.894 365.891C591.941 370.349 589.832 373.774 585.661 376.167Z" fill="#474848"/>
<path d="M585.661 376.167C570.102 384.895 562.276 399.114 562.276 418.729V569.595C562.276 581.232 557.777 587.098 548.779 587.098C539.781 587.098 535.282 581.42 535.282 570.017V425.392C535.282 396.768 522.112 380.672 495.774 377.106L464.984 372.929C460.063 372.272 457.58 369.645 457.58 364.952C457.58 359.65 460.719 356.975 467.093 356.975H582.381C588.707 356.975 591.894 359.978 591.894 365.891C591.941 370.349 589.832 373.774 585.661 376.167Z" stroke="#436358" stroke-miterlimit="10"/>
<path d="M759.999 539.562C759.999 570.252 747.345 585.596 721.991 585.596C713.743 585.596 708.166 583.672 705.261 579.871C702.87 576.962 701.652 573.865 701.652 570.533C701.652 565.465 704.183 561.805 709.244 559.506C718.758 555.329 725.178 549.745 728.599 542.753C731.364 537.028 732.77 528.488 732.77 517.085V412.488C732.77 404.135 730.755 396.815 726.678 390.621C721.851 383.535 715.524 379.968 707.698 379.968C693.263 379.968 681.031 389.306 671.049 407.936C662.192 424.407 657.74 441.91 657.74 460.446V572.457C657.74 582.969 653.194 588.224 644.055 588.224C635.057 588.224 630.558 582.969 630.558 572.41V369.879C630.558 360.87 634.307 356.365 641.759 356.365C646.586 356.365 650.476 359.415 653.522 365.562L659.427 377.247C662.332 383.112 665.988 386.069 670.44 386.069C674.002 386.069 677.517 384.098 681.078 380.156C695.372 364.295 708.869 356.365 721.523 356.365C734.692 356.365 744.627 361.48 751.329 371.756C757.046 380.484 759.858 391.841 759.858 405.824V539.562H759.999Z" fill="#474848"/>
<path d="M759.999 539.562C759.999 570.252 747.345 585.596 721.991 585.596C713.743 585.596 708.166 583.672 705.261 579.871C702.87 576.962 701.652 573.865 701.652 570.533C701.652 565.465 704.183 561.805 709.244 559.506C718.758 555.329 725.178 549.745 728.599 542.753C731.364 537.028 732.77 528.488 732.77 517.085V412.488C732.77 404.135 730.755 396.815 726.678 390.621C721.851 383.535 715.524 379.968 707.698 379.968C693.263 379.968 681.031 389.306 671.049 407.936C662.192 424.407 657.74 441.91 657.74 460.446V572.457C657.74 582.969 653.194 588.224 644.055 588.224C635.057 588.224 630.558 582.969 630.558 572.41V369.879C630.558 360.87 634.307 356.365 641.759 356.365C646.586 356.365 650.476 359.415 653.522 365.562L659.427 377.247C662.332 383.112 665.988 386.069 670.44 386.069C674.002 386.069 677.517 384.098 681.078 380.156C695.372 364.295 708.869 356.365 721.523 356.365C734.692 356.365 744.627 361.48 751.329 371.756C757.046 380.484 759.858 391.841 759.858 405.824V539.562H759.999Z" stroke="#436358" stroke-miterlimit="10"/>
<path d="M911.185 420.324C911.185 442.661 904.718 469.08 891.83 499.629C876.271 536.418 856.634 564.714 832.968 584.658C828.515 588.224 824.438 589.96 820.642 589.96C816.706 589.96 814.737 588.271 814.737 584.846C814.737 581.795 816.659 578.464 820.455 574.757C838.076 557.629 852.932 532.148 865.07 498.315C875.427 469.268 880.629 445.148 880.629 425.862C880.629 392.873 866.054 375.839 836.951 374.713L807.52 373.586C798.006 373.211 793.273 367.392 793.273 356.083V336.328C793.273 325.441 798.006 319.997 807.52 319.997C814.362 319.997 819.142 323.658 821.954 331.025L825.563 340.363C828.234 347.214 830.296 351.438 831.843 353.08C834.374 355.755 838.498 357.069 844.168 357.069H862.774C895.064 356.975 911.185 378.091 911.185 420.324Z" fill="#474848"/>
<path d="M911.185 420.324C911.185 442.661 904.718 469.08 891.83 499.629C876.271 536.418 856.634 564.714 832.968 584.658C828.515 588.224 824.438 589.96 820.642 589.96C816.706 589.96 814.737 588.271 814.737 584.846C814.737 581.795 816.659 578.464 820.455 574.757C838.076 557.629 852.932 532.148 865.07 498.315C875.427 469.268 880.629 445.148 880.629 425.862C880.629 392.873 866.054 375.839 836.951 374.713L807.52 373.586C798.006 373.211 793.273 367.392 793.273 356.083V336.328C793.273 325.441 798.006 319.997 807.52 319.997C814.362 319.997 819.142 323.658 821.954 331.025L825.563 340.363C828.234 347.214 830.296 351.438 831.843 353.08C834.374 355.755 838.498 357.069 844.168 357.069H862.774C895.064 356.975 911.185 378.091 911.185 420.324Z" stroke="#436358" stroke-miterlimit="10"/>
<path d="M1083.09 539.562C1083.09 570.252 1070.43 585.596 1045.08 585.596C1036.83 585.596 1031.25 583.672 1028.35 579.871C1025.96 576.962 1024.74 573.865 1024.74 570.533C1024.74 565.465 1027.27 561.805 1032.33 559.506C1041.84 555.329 1048.26 549.745 1051.69 542.753C1054.45 537.028 1055.86 528.488 1055.86 517.085V412.488C1055.86 404.135 1053.84 396.815 1049.76 390.621C1044.94 383.535 1038.61 379.968 1030.78 379.968C1016.35 379.968 1004.12 389.306 994.136 407.936C985.278 424.407 980.826 441.91 980.826 460.446V572.457C980.826 582.969 976.28 588.224 967.142 588.224C958.144 588.224 953.645 582.969 953.645 572.41V369.879C953.645 360.87 957.394 356.365 964.845 356.365C969.672 356.365 973.562 359.415 976.608 365.562L982.513 377.247C985.419 383.112 989.074 386.069 993.527 386.069C997.088 386.069 1000.6 384.098 1004.17 380.156C1018.46 364.295 1031.96 356.365 1044.61 356.365C1057.78 356.365 1067.71 361.48 1074.42 371.756C1080.13 380.484 1082.94 391.841 1082.94 405.824V539.562H1083.09Z" fill="#474848"/>
<path d="M1083.09 539.562C1083.09 570.252 1070.43 585.596 1045.08 585.596C1036.83 585.596 1031.25 583.672 1028.35 579.871C1025.96 576.962 1024.74 573.865 1024.74 570.533C1024.74 565.465 1027.27 561.805 1032.33 559.506C1041.84 555.329 1048.26 549.745 1051.69 542.753C1054.45 537.028 1055.86 528.488 1055.86 517.085V412.488C1055.86 404.135 1053.84 396.815 1049.76 390.621C1044.94 383.535 1038.61 379.968 1030.78 379.968C1016.35 379.968 1004.12 389.306 994.136 407.936C985.278 424.407 980.826 441.91 980.826 460.446V572.457C980.826 582.969 976.28 588.224 967.142 588.224C958.144 588.224 953.645 582.969 953.645 572.41V369.879C953.645 360.87 957.394 356.365 964.845 356.365C969.672 356.365 973.562 359.415 976.608 365.562L982.513 377.247C985.419 383.112 989.074 386.069 993.527 386.069C997.088 386.069 1000.6 384.098 1004.17 380.156C1018.46 364.295 1031.96 356.365 1044.61 356.365C1057.78 356.365 1067.71 361.48 1074.42 371.756C1080.13 380.484 1082.94 391.841 1082.94 405.824V539.562H1083.09Z" stroke="#436358" stroke-miterlimit="10"/>
<path d="M1252.88 568.656C1252.88 581.608 1247.96 588.036 1238.07 588.036C1228.32 588.036 1223.45 581.561 1223.45 568.656V430.976C1223.45 391.653 1206.86 372.038 1173.68 372.038C1161.63 372.038 1149.63 374.9 1137.59 380.578C1135.95 381.329 1134.36 381.705 1132.86 381.705C1128.31 381.705 1126.01 379.593 1126.01 375.416C1126.01 371.756 1128.59 368.331 1133.79 365.14C1146.45 357.538 1164.07 353.737 1186.61 353.737C1230.8 353.737 1252.88 376.871 1252.88 423.14V568.656ZM1158.49 570.346C1158.49 582.124 1153.99 588.036 1144.99 588.036C1135.86 588.036 1131.31 582.124 1131.31 570.346V478.7C1131.31 469.08 1135.76 464.247 1144.62 464.247C1153.85 464.247 1158.49 469.08 1158.49 478.7V570.346V570.346Z" fill="#474848"/>
<path d="M1252.88 568.656C1252.88 581.608 1247.96 588.036 1238.07 588.036C1228.32 588.036 1223.45 581.561 1223.45 568.656V430.976C1223.45 391.653 1206.86 372.038 1173.68 372.038C1161.63 372.038 1149.63 374.9 1137.59 380.578C1135.95 381.329 1134.36 381.705 1132.86 381.705C1128.31 381.705 1126.01 379.593 1126.01 375.416C1126.01 371.756 1128.59 368.331 1133.79 365.14C1146.45 357.538 1164.07 353.737 1186.61 353.737C1230.8 353.737 1252.88 376.871 1252.88 423.14V568.656ZM1158.49 570.346C1158.49 582.124 1153.99 588.036 1144.99 588.036C1135.86 588.036 1131.31 582.124 1131.31 570.346V478.7C1131.31 469.08 1135.76 464.247 1144.62 464.247C1153.85 464.247 1158.49 469.08 1158.49 478.7V570.346V570.346Z" stroke="#436358" stroke-miterlimit="10"/>
<path d="M1575.96 420.324C1575.96 442.661 1569.5 469.08 1556.56 499.629C1541 536.418 1521.37 564.714 1497.7 584.658C1493.25 588.224 1489.17 589.96 1485.37 589.96C1481.44 589.96 1479.47 588.271 1479.47 584.846C1479.47 581.795 1481.34 578.464 1485.19 574.757C1502.81 557.629 1517.66 532.148 1529.8 498.315C1540.21 469.268 1545.36 445.148 1545.36 425.862C1545.36 392.873 1530.79 375.839 1501.68 374.713L1472.25 373.586C1462.79 373.211 1458 367.392 1458 356.083V336.328C1458 325.441 1462.74 319.997 1472.25 319.997C1479.09 319.997 1483.92 323.658 1486.69 331.025L1490.29 340.363C1492.97 347.214 1495.03 351.438 1496.57 353.08C1499.11 355.755 1503.23 357.069 1508.9 357.069H1527.51C1559.8 356.975 1575.96 378.091 1575.96 420.324Z" fill="#474848"/>
<path d="M1575.96 420.324C1575.96 442.661 1569.5 469.08 1556.56 499.629C1541 536.418 1521.37 564.714 1497.7 584.658C1493.25 588.224 1489.17 589.96 1485.37 589.96C1481.44 589.96 1479.47 588.271 1479.47 584.846C1479.47 581.795 1481.34 578.464 1485.19 574.757C1502.81 557.629 1517.66 532.148 1529.8 498.315C1540.21 469.268 1545.36 445.148 1545.36 425.862C1545.36 392.873 1530.79 375.839 1501.68 374.713L1472.25 373.586C1462.79 373.211 1458 367.392 1458 356.083V336.328C1458 325.441 1462.74 319.997 1472.25 319.997C1479.09 319.997 1483.92 323.658 1486.69 331.025L1490.29 340.363C1492.97 347.214 1495.03 351.438 1496.57 353.08C1499.11 355.755 1503.23 357.069 1508.9 357.069H1527.51C1559.8 356.975 1575.96 378.091 1575.96 420.324Z" stroke="#436358" stroke-miterlimit="10"/>
<path d="M1724.85 516.944C1724.85 538.248 1719.79 555.189 1709.67 567.718C1698.66 581.42 1682.91 588.271 1662.38 588.271C1642.65 588.271 1627.61 584.517 1617.39 577.056C1613.08 573.865 1610.93 570.58 1610.93 567.155C1610.93 563.119 1613.13 561.054 1617.58 561.054C1619.22 561.054 1620.86 561.523 1622.5 562.368C1631.5 567.436 1641.11 569.97 1651.37 569.97C1665.66 569.97 1676.82 564.198 1684.78 552.655C1691.86 542.519 1695.42 529.943 1695.42 515.02V426.988C1695.42 412.019 1691.86 399.489 1684.78 389.353C1676.82 377.81 1665.66 372.038 1651.37 372.038C1641.01 372.038 1631.36 374.572 1622.5 379.64C1620.72 380.672 1619.08 381.188 1617.58 381.188C1613.13 381.188 1610.93 379.077 1610.93 374.9C1610.93 371.616 1613.08 368.378 1617.39 365.187C1627.75 357.585 1642.79 353.784 1662.38 353.784C1682.91 353.784 1698.66 360.635 1709.67 374.337C1719.79 386.913 1724.85 403.806 1724.85 425.111V516.944Z" fill="#474848"/>
<path d="M1724.85 516.944C1724.85 538.248 1719.79 555.189 1709.67 567.718C1698.66 581.42 1682.91 588.271 1662.38 588.271C1642.65 588.271 1627.61 584.517 1617.39 577.056C1613.08 573.865 1610.93 570.58 1610.93 567.155C1610.93 563.119 1613.13 561.054 1617.58 561.054C1619.22 561.054 1620.86 561.523 1622.5 562.368C1631.5 567.436 1641.11 569.97 1651.37 569.97C1665.66 569.97 1676.82 564.198 1684.78 552.655C1691.86 542.519 1695.42 529.943 1695.42 515.02V426.988C1695.42 412.019 1691.86 399.489 1684.78 389.353C1676.82 377.81 1665.66 372.038 1651.37 372.038C1641.01 372.038 1631.36 374.572 1622.5 379.64C1620.72 380.672 1619.08 381.188 1617.58 381.188C1613.13 381.188 1610.93 379.077 1610.93 374.9C1610.93 371.616 1613.08 368.378 1617.39 365.187C1627.75 357.585 1642.79 353.784 1662.38 353.784C1682.91 353.784 1698.66 360.635 1709.67 374.337C1719.79 386.913 1724.85 403.806 1724.85 425.111V516.944Z" stroke="#436358" stroke-miterlimit="10"/>
<path d="M481.902 0.950134L0.271759 239.285L1813.43 240.787L798.006 239.285H1926.75L1445.16 0.950134H481.902Z" fill="#16391B"/>
<path d="M0.271759 294.564H1926.75" stroke="#C6854F" stroke-width="8"/>
<path d="M0.271759 643.174H1926.75" stroke="#CA8752" stroke-width="1.89"/>
</svg>
